<svg xmlns="http://www.w3.org/2000/svg" viewBox="0 0 64 64"><title>worldwide delivery</title><g id="worldwide_delivery" data-name="worldwide delivery"><path d="M45,54a1,1,0,0,0,0,2h2a1,1,0,0,0,0-2Z"/><path d="M59.92,44.61c-.08-.2.06,0-4.14-5.23-.39-.49-1-.38-1.38-.38a26,26,0,0,0-.68-19.62C59.6,6.45,53.53.4,40.6,6.29A26,26,0,0,0,5,22.72,1,1,0,0,0,7,23.28,24.71,24.71,0,0,1,8.2,20H13a1,1,0,0,1,1,1,3,3,0,0,0,.87,2.11c1.23,1.26,2.23.57,2.84,1.2.36.34.29.61.29,1.79A5,5,0,0,0,14,31c0,2-.26,4.49,2.55,5.89A2.63,2.63,0,0,1,18,39.24v5.19a4.42,4.42,0,0,0,8.67,1.36l.69-2.42a2,2,0,0,1,2-1.37,4.06,4.06,0,0,0,4-3.51l.34-2.37a1,1,0,0,0-2-.28l-.34,2.37A2.08,2.08,0,0,1,29.34,40a4,4,0,0,0-3.9,2.83l-.69,2.42A2.43,2.43,0,0,1,20,44.43V39.24a4.6,4.6,0,0,0-2.55-4.13C15.77,34.27,16,32.71,16,31a3,3,0,0,1,3-3,1,1,0,0,0,1-1c0-1.85.21-3.06-.87-4.11-1.23-1.26-2.23-.57-2.84-1.2A.93.93,0,0,1,16,21a3,3,0,0,0-3-3c-4.29,0-3.84.1-3.64-.23A24.19,24.19,0,0,1,20.41,8c4,0,6.89-.49,9.48,2.11a7.19,7.19,0,0,1,2,4,1,1,0,0,0,2-.3,9.2,9.2,0,0,0-7.12-7.63A23.87,23.87,0,0,1,51,18.48a9.72,9.72,0,0,0-6.1,5.83A2.61,2.61,0,0,1,42.5,26a3.5,3.5,0,0,0,0,7H46a2,2,0,0,1,2,2,6,6,0,0,0,1.53,4H45c-.65,0-.39-.12-4.78,5.38-.3.37-.22.43-.22,7.44a24.06,24.06,0,0,1-18.25.73A75.76,75.76,0,0,0,40,38.39V41a1,1,0,0,0,2,0V36a1,1,0,0,0-1-1H36a1,1,0,0,0,0,2h2.56c-5.38,5.54-12.3,11.2-19.21,14.53A24.07,24.07,0,0,1,8.19,40.09C5,33.07,7,29.88,5,30a1,1,0,0,0-1,1,25.88,25.88,0,0,0,2.24,9.62c-2.82,6.22-3,11-.47,13.55A6.43,6.43,0,0,0,9.92,56a1,1,0,0,0,.16-2c-5.26-.43-4.59-6.05-2.64-11A26,26,0,0,0,17,52.56a25.61,25.61,0,0,1-3.28,1,1,1,0,0,0,.44,1.94,27.47,27.47,0,0,0,5.17-1.81A26.12,26.12,0,0,0,40,54v5a1,1,0,0,0,1,1h8a1,1,0,0,0,0-2H42V46h7v2a1,1,0,0,0,2,0V46h7V58H53a1,1,0,0,0,0,2h6a1,1,0,0,0,1-1C60,44.09,60,44.89,59.92,44.61Zm-17-37.13c9.67-3.86,13.45,0,9.64,9.57A26.1,26.1,0,0,0,42.91,7.48ZM46,31c-3.35,0-3.94.18-4.56-.44a1.5,1.5,0,0,1,0-2.12c.86-.86,1.83,0,3.68-1.26A4.7,4.7,0,0,0,46.82,25a7.71,7.71,0,0,1,4-4.31A55.65,55.65,0,0,1,47.62,26a1,1,0,0,0,1.66,1.13c3.79-5.57,3.07-6,3.46-4.84a23.88,23.88,0,0,1-.37,16.32A4,4,0,0,1,50,35,4,4,0,0,0,46,31ZM43.08,44l2.4-3H49v3ZM51,44V41h3.52l2.4,3Z"/><path d="M5,28a1.1,1.1,0,0,0,.52-2.11C4.15,25.42,3.6,27.74,5,28Z"/><path d="M28.18,21A5.79,5.79,0,0,0,33,18.38a1,1,0,0,0-1.66-1.1A3.81,3.81,0,0,1,28.18,19a5.81,5.81,0,0,0-5.35,3.53l-1.75,4.08A1,1,0,0,0,22,28h5a5,5,0,0,1,5,4.17,1,1,0,0,0,2-.34A7.05,7.05,0,0,0,27,26H23.52l1.15-2.69A3.82,3.82,0,0,1,28.18,21Z"/></g></svg>